REM MD5 a0f1059c6d1e9febf71ebaf3ed0a65b7
FILE "Lost World, The - Jurassic Park (Japan).bin" BINARY
  TRACK 01 MODE2/2352
    INDEX 01 00:00:00
  TRACK 02 AUDIO
    INDEX 00 25:02:17
    INDEX 01 25:04:17
  TRACK 03 AUDIO
    INDEX 00 68:12:08
    INDEX 01 68:14:08
REM LEADOUT 69:14:08
